<svg xmlns="http://www.w3.org/2000/svg" width="16" height="16" viewBox="0 0 16 16">
    <path fill="#333" d="M12.784 9.596c-.319 0-.558.08-.797.08l-2.31-2.311 1.912-1.913 2.47-.876 1.833-2.949c.08-.16.08-.398 0-.478l-.956-.956c-.16-.16-.399-.16-.558-.08L11.35 1.866l-.957 2.55L8.481 6.33 6.329 4.018c0-.24.08-.478.08-.797 0-2.072-1.992-3.586-3.985-3.108L3.62 1.308c.637.638.637 1.594 0 2.232-.638.637-1.594.637-2.232 0L.113 2.424c-.637 2.31 1.515 4.542 3.905 3.825l2.311 2.31-.956.957c-.558-.16-1.116 0-1.514.399L.592 13.182c-.638.637-.718 1.594-.16 2.231.638.717 1.674.717 2.311.08l3.347-3.347c.399-.399.558-1.036.399-1.514l.956-.956 2.31 2.31c-.079.24-.079.558-.079.797 0 2.072 1.992 3.586 3.985 3.108l-1.196-1.195c-.637-.638-.637-1.594 0-2.231.638-.638 1.594-.638 2.231 0l1.196 1.195c.558-2.072-1.036-4.064-3.108-4.064z"/>
</svg>
