<svg xmlns="http://www.w3.org/2000/svg" width="13" height="16" viewBox="0 0 13 16">
    <g fill="#333">
        <path d="M6.126 7.825c1.779 0 3.22-1.752 3.22-3.912C9.347 1.752 8.874 0 6.127 0 3.378 0 2.904 1.752 2.904 3.913c0 2.16 1.443 3.912 3.222 3.912zM12.203 13.641c-.06-3.764-.552-4.837-4.313-5.516 0 0-.53.675-1.764.675-1.235 0-1.764-.675-1.764-.675C.64 8.797.119 9.853.05 13.52c-.006.299-.008.315-.01.28l.001.395S.938 16 6.126 16s6.083-1.806 6.083-1.806v-.292c0 .021-.002-.02-.006-.261z"/>
    </g>
</svg>
