<svg xmlns="http://www.w3.org/2000/svg" width="16" height="12" viewBox="0 0 16 12">
    <g fill="#333">
        <path d="M3 2.688H1.667c-.184 0-.334.149-.334.333 0 .184.15.333.334.333H3c.184 0 .333-.15.333-.333 0-.184-.149-.333-.333-.333z"/>
        <path d="M13.651 3.587c-.063-.2-1.335-2.895-1.811-3.184C11.345.102 8.381.02 8 .02c-.381 0-3.345.08-3.84.382-.476.288-1.748 2.985-1.811 3.184-.056.175.042.362.217.418.177.056.363-.042.419-.217.104-.331 1.26-2.587 1.514-2.811C4.781.842 6.858.687 8 .687s3.219.155 3.477.274c.277.24 1.434 2.496 1.538 2.827.046.142.177.233.318.233.034 0 .068-.005.102-.016.174-.055.272-.243.216-.418zM3 9.354c-.156 0-.281.11-.317.254L.667 9.104v-.083c0-.184-.15-.334-.334-.334-.184 0-.333.15-.333.334v1.333c0 .552.449 1 1 1h1.333c.552 0 1-.448 1-1v-.666c0-.184-.149-.334-.333-.334zM15.667 8.688c-.184 0-.334.149-.334.333v.083l-2.016.504c-.036-.144-.161-.254-.317-.254-.184 0-.333.15-.333.334v.666c0 .552.448 1 1 1H15c.551 0 1-.448 1-1V9.021c0-.184-.15-.334-.333-.334z"/>
        <path d="M14.333 2.688H13c-.184 0-.333.149-.333.333 0 .184.149.333.333.333h1.333c.184 0 .334-.15.334-.333 0-.184-.15-.333-.334-.333zM15.974 5.832l-.91.182c-.111.018-2.35.34-2.917.34-.082.065-.155.493-.146.893 2.032-.095 3.614-.223 3.639-.225l.36-.049c-.001-.441-.008-.819-.026-1.14z"/>
        <path d="M15.427 4.367c-.149-.043-.227-.152-.375-.373l-.114-.167c-.2-.278-.585-.29-.957-.3-.112-.004-.29-.01-.374-.029-.028-.042-.067-.077-.114-.102-.622-.342-2.978-.708-5.493-.708s-4.871.365-5.493.708c-.047.025-.086.06-.115.103-.084.02-.261.024-.373.028-.372.01-.758.022-.957.3l-.114.167c-.148.222-.226.33-.375.374-.262.076-.405.344-.484.832l.658.164c.011 0 2.186.324 2.92.324.252 0 .474.096.642.277.353.382.37 1.051.361 1.312 1.073.045 2.23.077 3.33.077s2.26-.032 3.333-.077c-.007-.295.01-1.033.34-1.381.129-.136.292-.208.474-.208.431 0 2.172-.238 2.806-.33l.954-.192c-.08-.467-.224-.725-.48-.8zm-5.094 2.32H5.667c-.184 0-.334-.149-.334-.333 0-.184.15-.333.334-.333h4.666c.184 0 .334.15.334.333 0 .184-.15.333-.334.333zM15.71 7.685c-.057.005-4.182.336-7.71.336-3.528 0-7.653-.332-7.693-.334l-.29-.03c.036.723.148 1.808.493 1.992.36.191 4.525.372 7.49.372s7.13-.18 7.49-.373c.346-.184.457-1.276.493-2l-.272.037z"/>
        <path d="M3.819 6.417c-.042-.045-.086-.063-.152-.063-.787 0-2.958-.323-3.05-.336L.023 5.87C.007 6.186.001 6.556 0 6.984l.367.038c.022.002 1.603.129 3.635.225.007-.24-.025-.66-.183-.83z"/>
    </g>
</svg>
