<svg xmlns="http://www.w3.org/2000/svg" width="19" height="16" viewBox="0 0 19 16">
    <g fill="#666">
        <path d="M1.893 4.812l-1.06-.001c-.375 0-.683.167-.766.415-.026.08-.048.16-.065.243l1.521-.002.37-.655zM11.77 8.488c-.096-.281-.44-.527-.737-.527H6.274c-.295 0-.635.246-.727.526l-.121.372h6.47l-.126-.371zM14.439 4.724c-1.015-.469-1.732-1.514-1.764-2.665-.076-.018-.154-.028-.232-.03H4.947c-.844 0-1.379.849-1.623 1.351l-.007.012-1.304 2.306h8.303c.112-.92.893-1.613 1.82-1.613.928 0 1.71.692 1.82 1.613h.483v-.974z"/>
        <path d="M12.137 4.631c-.635 0-1.163.481-1.269 1.067h2.537c-.105-.586-.634-1.067-1.268-1.067zM2.553 8.305c-.28 0-.508.227-.508.507s.227.507.508.507c.28 0 .507-.227.507-.507s-.227-.507-.507-.507zM3.161 13.076V11.98H1.795v1.096c0 .06.047.11.107.114h1.143c.061-.004.11-.052.116-.114z"/>
        <path d="M14.439 6.244H1.545c-.015.002-.03.002-.046.002-.495.029-.988.473-.996 1.194l.44 3.476.002.036c0 .266.215.48.48.482h12.734c.096-.078.202-.112.28-.158V9.817c-.39-.134-.738-.534-.738-1.005 0-.471.348-.871.738-1.005V6.244zM4.789 9.03l.239-.721c.165-.507.713-.895 1.246-.895h4.76c.531 0 1.082.385 1.253.889l.25.728c.028.086.014.18-.037.253-.05.073-.133.118-.222.12H5.049c-.089-.003-.17-.048-.221-.12-.051-.075-.066-.168-.039-.254zm-2.236.834c-.582 0-1.054-.471-1.054-1.053s.472-1.054 1.054-1.054c.582 0 1.053.472 1.053 1.054 0 .581-.472 1.053-1.053 1.053zm10.679.476H4.316c-.15 0-.273-.122-.273-.273 0-.15.123-.273.273-.273h8.916c.15 0 .273.122.273.273 0 .151-.122.273-.273.273z"/>
        <path d="M14.439 8.415c-.078.093-.192.236-.192.397 0 .16.114.303.192.396v-.793z"/>
        <path d="M16.539 11.715c-.11-.04-.184-.14-.188-.256V4.54c.004-.115.079-.217.188-.256.959-.361 1.595-1.278 1.598-2.303 0-.781-.342-1.496-.966-1.956v1.077c.001.09-.043.176-.118.227l-1.209.806c-.093.063-.215.061-.306-.003l-1.227-.858c-.073-.052-.116-.136-.116-.225l.004-1.026c-.712.542-1.073 1.428-.944 2.313.128.885.726 1.63 1.562 1.948.105.042.172.144.168.256v6.918c.004.112-.063.215-.168.256-.148.056-.29.126-.424.21-.009.008-.019.014-.029.02-.705.454-1.131 1.235-1.132 2.073 0 .781.348 1.496.973 1.956v-1.077c-.002-.09.042-.176.117-.227l1.21-.806c.092-.063.214-.061.306.003l1.226.858c.073.052.117.136.116.225l-.003 1.026c.613-.464.972-1.189.97-1.958-.008-1.027-.647-1.943-1.608-2.303z"/>
    </g>
</svg>
