<svg xmlns="http://www.w3.org/2000/svg" width="12" height="16" viewBox="0 0 12 16">
    <g fill="#A6C4FF">
        <path d="M8.906 1.406v1c0 .26-.21.469-.469.469H2.814c-.26 0-.47-.21-.47-.469v-1c0-.259.21-.468.47-.468h1.874c0-.518.42-.938.938-.938s.938.42.938.938h1.875c.258 0 .468.21.468.468z"/>
        <path d="M10.781 1.938h-.937v.468c0 .777-.63 1.406-1.406 1.406H2.811c-.776 0-1.406-.63-1.406-1.406v-.469H.47c-.26 0-.469.21-.469.47V15.53c0 .26.21.469.469.469H10.78c.26 0 .469-.21.469-.469V2.406c0-.259-.21-.469-.469-.469z"/>
    </g>
</svg>
