<svg xmlns="http://www.w3.org/2000/svg" width="16" height="12" viewBox="0 0 16 12">
    <g fill="#666">
        <path d="M3.537 4.377H.817c-.228 0-.42.08-.579.238-.159.159-.238.351-.238.578v1.633c0 .226.08.419.238.578.159.158.351.238.578.238h2.72c.227 0 .42-.08.579-.238.158-.16.238-.352.238-.578V5.193c0-.227-.08-.42-.238-.578-.159-.158-.352-.238-.578-.238zM3.537.024H.817c-.228 0-.42.08-.579.238C.079.421 0 .614 0 .84v1.633c0 .226.08.42.238.578.159.159.351.238.578.238h2.72c.227 0 .42-.08.579-.238.158-.159.238-.351.238-.578V.84c0-.226-.08-.419-.238-.578-.159-.158-.352-.238-.578-.238zM3.537 8.73H.817c-.228 0-.42.08-.579.238-.159.159-.238.351-.238.578v1.632c0 .227.08.42.238.578.159.16.351.238.578.238h2.72c.227 0 .42-.079.579-.238.158-.158.238-.35.238-.578V9.546c0-.227-.08-.42-.238-.578-.159-.159-.352-.238-.578-.238zM14.418 4.377H6.257c-.227 0-.42.08-.578.238-.159.159-.238.351-.238.578v1.633c0 .226.08.419.238.578.159.158.351.238.578.238h8.162c.226 0 .419-.08.577-.238.16-.16.239-.352.239-.578V5.193c0-.227-.08-.42-.239-.578-.158-.159-.35-.238-.578-.238zM14.418 8.73H6.257c-.227 0-.42.08-.578.238-.159.159-.238.351-.238.578v1.632c0 .227.08.42.238.578.159.16.351.238.578.238h8.162c.226 0 .419-.079.577-.238.16-.158.239-.351.239-.578V9.546c0-.227-.08-.42-.239-.578-.158-.159-.35-.238-.578-.238zM14.996.262c-.158-.158-.35-.238-.578-.238H6.257c-.227 0-.42.08-.578.238-.159.16-.238.352-.238.578v1.633c0 .227.08.42.238.578.159.159.351.238.578.238h8.162c.226 0 .419-.08.577-.238.16-.159.239-.351.239-.578V.84c0-.226-.08-.419-.239-.578z"/>
    </g>
</svg>
