<svg xmlns="http://www.w3.org/2000/svg" width="16" height="16" viewBox="0 0 16 16">
    <g>
        <path d="M7.931 0C3.558 0 0 3.558 0 7.931c0 4.374 3.558 7.932 7.931 7.932 4.374 0 7.932-3.558 7.932-7.932C15.863 3.558 12.305 0 7.93 0zm0 14.175c-3.442 0-6.243-2.8-6.243-6.244 0-3.443 2.8-6.243 6.243-6.243 3.443 0 6.244 2.8 6.244 6.243 0 3.443-2.8 6.244-6.244 6.244z"/>
        <path d="M12.065 7.687H8.501V3.4c0-.36-.293-.653-.653-.653-.361 0-.654.292-.654.653V8.34c0 .36.293.653.654.653h4.217c.36 0 .653-.293.653-.653 0-.361-.292-.653-.653-.653z"/>
    </g>
</svg>
